<?xml version="1.0" encoding="UTF-8" standalone="no"?>
<!-- Created with Inkscape (http://www.inkscape.org/) -->

<svg
   xmlns:dc="http://purl.org/dc/elements/1.1/"
   xmlns:cc="http://creativecommons.org/ns#"
   xmlns:rdf="http://www.w3.org/1999/02/22-rdf-syntax-ns#"
   xmlns:svg="http://www.w3.org/2000/svg"
   xmlns="http://www.w3.org/2000/svg"
   xmlns:sodipodi="http://sodipodi.sourceforge.net/DTD/sodipodi-0.dtd"
   xmlns:inkscape="http://www.inkscape.org/namespaces/inkscape"
   width="744.09448819"
   height="1052.3622047"
   id="svg2"
   version="1.1"
   inkscape:version="0.48.5 r10040"
   sodipodi:docname="playersAndBall3.svg"
   inkscape:export-filename="D:\COURS\Unity\StratBrawl\RessourceStratBrawl\playersAndBall3.png"
   inkscape:export-xdpi="90"
   inkscape:export-ydpi="90">
  <defs
     id="defs4" />
  <sodipodi:namedview
     id="base"
     pagecolor="#ffffff"
     bordercolor="#666666"
     borderopacity="1.0"
     inkscape:pageopacity="0.0"
     inkscape:pageshadow="2"
     inkscape:zoom="0.98994949"
     inkscape:cx="294.65682"
     inkscape:cy="687.80224"
     inkscape:document-units="px"
     inkscape:current-layer="layer1"
     showgrid="false"
     inkscape:window-width="1479"
     inkscape:window-height="787"
     inkscape:window-x="41"
     inkscape:window-y="0"
     inkscape:window-maximized="0" />
  <metadata
     id="metadata7">
    <rdf:RDF>
      <cc:Work
         rdf:about="">
        <dc:format>image/svg+xml</dc:format>
        <dc:type
           rdf:resource="http://purl.org/dc/dcmitype/StillImage" />
        <dc:title></dc:title>
      </cc:Work>
    </rdf:RDF>
  </metadata>
  <g
     inkscape:label="Layer 1"
     inkscape:groupmode="layer"
     id="layer1">
    <path
       style="fill:#e9c6af;fill-opacity:1;fill-rule:nonzero;stroke:#002225;stroke-width:1.77165353;stroke-linecap:round;stroke-linejoin:round;stroke-miterlimit:4;stroke-opacity:1;stroke-dashoffset:0"
       d="m 247.30599,419.74319 c -0.27053,12.27064 -12.86681,37.10105 -19.00213,36.9658 -6.13533,-0.13526 -3.82033,-10.03638 -3.54981,-22.30702 0.27052,-12.27064 -1.60586,-22.26416 4.52945,-22.12889 6.13533,0.13526 18.29302,-4.80053 18.02249,7.47011 z"
       id="path3015-7"
       inkscape:connector-curvature="0"
       sodipodi:nodetypes="sssss"
       inkscape:transform-center-x="-8.4577545"
       inkscape:transform-center-y="-2.7104439" />
    <path
       style="fill:#e9c6af;fill-opacity:1;fill-rule:nonzero;stroke:#002225;stroke-width:1.77165353;stroke-linecap:round;stroke-linejoin:round;stroke-miterlimit:4;stroke-opacity:1;stroke-dashoffset:0"
       d="m 113.57714,423.68766 c 4.284,11.50169 24.33399,30.82045 30.08485,28.67846 5.75084,-2.14199 0.3136,-10.73431 -3.9704,-22.23602 -4.28399,-11.5017 -5.79251,-21.55733 -11.54336,-19.41533 -5.75085,2.142 -18.8551,1.47122 -14.57109,12.97289 z"
       id="path3015-7-4"
       inkscape:connector-curvature="0"
       sodipodi:nodetypes="sssss"
       inkscape:transform-center-x="6.1305979"
       inkscape:transform-center-y="16.16466" />
    <path
       style="fill:#2b1100;fill-opacity:1;fill-rule:nonzero;stroke:#002225;stroke-width:1.16193712;stroke-linecap:round;stroke-linejoin:round;stroke-miterlimit:4;stroke-opacity:1;stroke-dashoffset:0"
       d="m 146.0348,447.11618 c 0.51297,3.4781 8.62115,7.20532 5.419,7.67757 -3.20213,0.47226 -16.50201,-2.48926 -17.01497,-5.96737 -0.51298,-3.4781 1.66706,-6.6805 4.86921,-7.15276 3.20212,-0.47226 6.2138,1.96447 6.72674,5.44259 z"
       id="path3054"
       inkscape:connector-curvature="0"
       sodipodi:nodetypes="sssss" />
    <path
       style="fill:#2b1100;fill-opacity:1;fill-rule:nonzero;stroke:#002225;stroke-width:1.16193712;stroke-linecap:round;stroke-linejoin:round;stroke-miterlimit:4;stroke-opacity:1;stroke-dashoffset:0"
       d="m 223.02132,453.36878 c 1.0259,3.3627 -4.70509,10.2031 -1.60917,9.2586 3.0959,-0.94453 13.84632,-9.31625 12.82042,-12.67895 -1.02594,-3.36272 -4.3673,-5.32306 -7.4632,-4.37855 -3.0959,0.94451 -4.77398,4.43619 -3.74805,7.7989 z"
       id="path3054-5"
       inkscape:connector-curvature="0"
       sodipodi:nodetypes="sssss"
       inkscape:transform-center-x="8.1465862"
       inkscape:transform-center-y="26.016725" />
    <g
       id="g3263"
       transform="matrix(2.5839976,0,0,2.5839976,-557.02455,-844.69541)">
      <path
         transform="matrix(0.87089609,0,0,0.87089609,17.248746,254.47169)"
         d="m 427.29453,355.33542 c 0,18.95645 -9.49747,34.32368 -21.2132,34.32368 -11.71573,0 -21.2132,-15.36723 -21.2132,-34.32368 0,-18.95645 9.49747,-34.32369 21.2132,-34.32369 11.71573,0 21.2132,15.36724 21.2132,34.32369 z"
         sodipodi:ry="34.323685"
         sodipodi:rx="21.213203"
         sodipodi:cy="355.33542"
         sodipodi:cx="406.08133"
         id="path3156"
         style="fill:#aa4400;fill-opacity:1;fill-rule:nonzero;stroke:#002225;stroke-width:1.77165353;stroke-linecap:round;stroke-linejoin:round;stroke-miterlimit:4;stroke-opacity:1;stroke-dasharray:none;stroke-dashoffset:0"
         sodipodi:type="arc" />
      <path
         sodipodi:nodetypes="ccccc"
         inkscape:connector-curvature="0"
         id="rect3171"
         d="m 357.79229,543.40154 26.53598,-0.3635 3.63506,8.72415 -34.16961,0.72702 z"
         style="fill:#ffe6d5;fill-opacity:1;fill-rule:nonzero;stroke:#002225;stroke-width:0.63753504;stroke-linecap:round;stroke-linejoin:round;stroke-miterlimit:4;stroke-opacity:1;stroke-dashoffset:0" />
      <path
         sodipodi:nodetypes="ccccc"
         inkscape:connector-curvature="0"
         id="rect3171-1"
         d="m 358.39549,586.59401 24.70241,-0.26429 4.63909,-9.26182 -33.79868,0.65437 z"
         style="fill:#ffe6d5;fill-opacity:1;fill-rule:nonzero;stroke:#002225;stroke-width:0.63753504;stroke-linecap:round;stroke-linejoin:round;stroke-miterlimit:4;stroke-opacity:1;stroke-dashoffset:0" />
      <rect
         ry="1.9992859"
         y="557.57831"
         x="368.69748"
         height="13.813248"
         width="3.9985719"
         id="rect3196"
         style="fill:#ffe6d5;fill-opacity:1;fill-rule:nonzero;stroke:#002225;stroke-width:0.63753504;stroke-linecap:round;stroke-linejoin:round;stroke-miterlimit:4;stroke-opacity:1;stroke-dasharray:none;stroke-dashoffset:0" />
      <rect
         transform="matrix(0,1,-1,0,0,0)"
         ry="1.5079426"
         y="-375.72427"
         x="559.82092"
         height="10.418512"
         width="2.0578628"
         id="rect3196-7"
         style="fill:#ffe6d5;fill-opacity:1;fill-rule:nonzero;stroke:#002225;stroke-width:0.39720502;stroke-linecap:round;stroke-linejoin:round;stroke-miterlimit:4;stroke-opacity:1;stroke-dasharray:none;stroke-dashoffset:0" />
      <rect
         transform="matrix(0,1,-1,0,0,0)"
         ry="1.5079426"
         y="-376.08777"
         x="563.09247"
         height="10.418512"
         width="2.0578628"
         id="rect3196-7-1"
         style="fill:#ffe6d5;fill-opacity:1;fill-rule:nonzero;stroke:#002225;stroke-width:0.39720502;stroke-linecap:round;stroke-linejoin:round;stroke-miterlimit:4;stroke-opacity:1;stroke-dasharray:none;stroke-dashoffset:0" />
      <rect
         transform="matrix(0,1,-1,0,0,0)"
         ry="1.5079426"
         y="-376.0878"
         x="567.09106"
         height="10.418512"
         width="2.0578628"
         id="rect3196-7-1-1"
         style="fill:#ffe6d5;fill-opacity:1;fill-rule:nonzero;stroke:#002225;stroke-width:0.39720502;stroke-linecap:round;stroke-linejoin:round;stroke-miterlimit:4;stroke-opacity:1;stroke-dasharray:none;stroke-dashoffset:0" />
    </g>
    <path
       style="fill:#e9c6af;fill-opacity:1;fill-rule:nonzero;stroke:#002225;stroke-width:1.77165353;stroke-linecap:round;stroke-linejoin:round;stroke-miterlimit:4;stroke-opacity:1;stroke-dashoffset:0"
       d="m 135.84348,408.19772 c -12.49587,35.52971 -44.99046,-5.73647 -20.13151,-4.72697 6.1365,0.0613 20.25414,-7.54601 20.13151,4.72697 z"
       id="path3015-7-4-9-3"
       inkscape:connector-curvature="0"
       sodipodi:nodetypes="ccc"
       inkscape:transform-center-x="-12.105702"
       inkscape:transform-center-y="14.879865" />
    <path
       style="fill:#a05a2c;fill-opacity:1;fill-rule:nonzero;stroke:#002225;stroke-width:1.66676724000000000;stroke-linecap:round;stroke-linejoin:round;stroke-miterlimit:4;stroke-opacity:1;stroke-dashoffset:0"
       d="m 205.93715,438.07647 c 0,4.30186 -3.55359,13.14635 -7.93715,13.14635 -4.38356,0 -7.93714,-8.84449 -7.93714,-13.14635 0,-4.30187 3.55358,-7.78921 7.93714,-7.78921 4.38356,0 7.93715,3.48734 7.93715,7.78921 z"
       id="path3411-4"
       inkscape:connector-curvature="0"
       sodipodi:nodetypes="sssss" />
    <path
       transform="matrix(0.47244246,0,0,0.47244246,143.72385,274.53925)"
       style="fill:#916f6f;fill-opacity:1;fill-rule:nonzero;stroke:#002225;stroke-width:1.77165353;stroke-linecap:round;stroke-linejoin:round;stroke-miterlimit:4;stroke-opacity:1;stroke-dashoffset:0"
       d="m 137.8217,325.94965 c 0,11.8552 -7.12376,16.04439 -18.00265,16.04439 -10.87889,0 -25.723318,2.35496 -25.723318,-9.50024 0,-11.8552 15.233528,-23.60389 26.112418,-23.60389 10.87889,0 17.61355,5.20454 17.61355,17.05974 z"
       id="path3321-4"
       inkscape:connector-curvature="0"
       sodipodi:nodetypes="sssss" />
    <path
       sodipodi:type="arc"
       style="fill:#c87137;fill-opacity:1;fill-rule:nonzero;stroke:#002225;stroke-width:1.77165353000000000;stroke-linecap:round;stroke-linejoin:round;stroke-miterlimit:4;stroke-opacity:1;stroke-dasharray:none;stroke-dashoffset:0"
       id="path3411"
       sodipodi:cx="256.8313"
       sodipodi:cy="439.45212"
       sodipodi:rx="10.206131"
       sodipodi:ry="6.8439112"
       d="m 267.03743,439.45212 a 10.206131,6.8439112 0 1 1 -20.41226,0 10.206131,6.8439112 0 1 1 20.41226,0 z"
       transform="matrix(0.77768408,0,0,1.1381228,-41.989175,-153.16267)" />
    <path
       transform="matrix(0.54566371,0,0,0.60319112,93.744679,153.73893)"
       style="fill:#916f6f;fill-opacity:1;fill-rule:nonzero;stroke:#002225;stroke-width:1.77165353;stroke-linecap:round;stroke-linejoin:round;stroke-miterlimit:4;stroke-opacity:1;stroke-dashoffset:0"
       d="m 142.68298,326.16895 c 0,9.35021 -11.59594,21.11674 -22.47483,21.11674 -10.87889,0 -19.69797,-7.57983 -19.69797,-16.93004 0,-9.3502 10.67032,-18.60472 21.54921,-18.60472 10.87889,0 20.62359,5.06782 20.62359,14.41802 z"
       id="path3321"
       inkscape:connector-curvature="0"
       sodipodi:nodetypes="sssss" />
    <path
       style="fill:#e9c6af;fill-opacity:1;fill-rule:nonzero;stroke:#002225;stroke-width:1.77165353;stroke-linecap:round;stroke-linejoin:round;stroke-miterlimit:4;stroke-opacity:1;stroke-dashoffset:0"
       d="m 252.01103,411.22817 c -12.49587,35.52971 -44.99046,-5.73647 -20.13151,-4.72697 6.1365,0.0613 20.25414,-7.54601 20.13151,4.72697 z"
       id="path3015-7-4-9-3-6"
       inkscape:connector-curvature="0"
       sodipodi:nodetypes="ccc"
       inkscape:transform-center-x="-12.1057"
       inkscape:transform-center-y="14.879865" />
    <g
       id="g3323"
       transform="translate(-8.5862967,-7.5761445)">
      <path
         d="m 236.37569,395.76303 c 0,21.19989 -20.80399,38.3858 -46.46701,38.3858 -25.66303,0 -46.46702,-17.18591 -46.46702,-38.3858 0,-21.19989 20.80399,-38.38579 46.46702,-38.38579 25.66302,0 46.46701,17.1859 46.46701,38.38579 z"
         sodipodi:ry="38.385796"
         sodipodi:rx="46.467018"
         sodipodi:cy="395.76303"
         sodipodi:cx="189.90868"
         id="path2985"
         style="fill:#aa0000;fill-opacity:1;fill-rule:nonzero;stroke:#002225;stroke-width:1.77165353;stroke-linecap:round;stroke-linejoin:round;stroke-miterlimit:4;stroke-opacity:1;stroke-dasharray:none;stroke-dashoffset:0"
         sodipodi:type="arc" />
      <path
         sodipodi:nodetypes="sssss"
         inkscape:connector-curvature="0"
         id="path2987"
         d="m 225.28432,417.98639 c 0,6.13681 -13.82369,20.20305 -35.86041,20.20305 -22.03673,0 -35.86042,-14.06624 -35.86042,-20.20305 0,-6.13681 13.82369,9.09137 35.86042,9.09137 22.03672,0 35.86041,-15.22818 35.86041,-9.09137 z"
         style="fill:#ffffff;fill-opacity:1;fill-rule:nonzero;stroke:#002225;stroke-width:1.77165353;stroke-linecap:round;stroke-linejoin:round;stroke-miterlimit:4;stroke-opacity:1;stroke-dashoffset:0" />
      <path
         sodipodi:nodetypes="sssss"
         inkscape:connector-curvature="0"
         id="path2994"
         d="m 274.25642,395.76304 c 0,11.99467 -21.7398,23.73859 -34.85026,23.73859 -13.11046,0 -1.51523,-11.74392 -1.51523,-23.73859 0,-11.99468 -12.60538,-25.75889 0.50508,-25.75889 13.11046,0 35.86041,13.76421 35.86041,25.75889 z"
         style="fill:#ff0000;fill-opacity:1;fill-rule:nonzero;stroke:#002225;stroke-width:1.77165353;stroke-linecap:round;stroke-linejoin:round;stroke-miterlimit:4;stroke-opacity:1;stroke-dashoffset:0" />
      <path
         sodipodi:nodetypes="sssss"
         inkscape:connector-curvature="0"
         id="path2994-1"
         d="m 106.36864,394.75287 c 0,11.99467 21.7398,23.73859 34.85026,23.73859 13.11046,0 1.51523,-11.74392 1.51523,-23.73859 0,-11.99468 12.60538,-25.75889 -0.50508,-25.75889 -13.11046,0 -35.86041,13.76421 -35.86041,25.75889 z"
         style="fill:#ff0000;fill-opacity:1;fill-rule:nonzero;stroke:#002225;stroke-width:1.77165353;stroke-linecap:round;stroke-linejoin:round;stroke-miterlimit:4;stroke-opacity:1;stroke-dashoffset:0" />
      <path
         transform="matrix(0.44533409,0,0,0.52392249,102.32967,128.70984)"
         d="m 172.73609,474.04984 c 0,4.74208 -4.5226,8.58629 -10.10152,8.58629 -5.57892,0 -10.10153,-3.84421 -10.10153,-8.58629 0,-4.74209 4.52261,-8.5863 10.10153,-8.5863 5.57892,0 10.10152,3.84421 10.10152,8.5863 z"
         sodipodi:ry="8.586297"
         sodipodi:rx="10.101525"
         sodipodi:cy="474.04984"
         sodipodi:cx="162.63457"
         id="path3054-0-9"
         style="fill:#ffffff;fill-opacity:1;fill-rule:nonzero;stroke:#002225;stroke-width:1.77165353;stroke-linecap:round;stroke-linejoin:round;stroke-miterlimit:4;stroke-opacity:1;stroke-dasharray:none;stroke-dashoffset:0"
         sodipodi:type="arc" />
      <path
         transform="matrix(0.44533409,0,0,0.52392249,130.61395,128.20476)"
         d="m 172.73609,474.04984 c 0,4.74208 -4.5226,8.58629 -10.10152,8.58629 -5.57892,0 -10.10153,-3.84421 -10.10153,-8.58629 0,-4.74209 4.52261,-8.5863 10.10153,-8.5863 5.57892,0 10.10152,3.84421 10.10152,8.5863 z"
         sodipodi:ry="8.586297"
         sodipodi:rx="10.101525"
         sodipodi:cy="474.04984"
         sodipodi:cx="162.63457"
         id="path3054-0-9-4"
         style="fill:#ffffff;fill-opacity:1;fill-rule:nonzero;stroke:#002225;stroke-width:1.77165353;stroke-linecap:round;stroke-linejoin:round;stroke-miterlimit:4;stroke-opacity:1;stroke-dasharray:none;stroke-dashoffset:0"
         sodipodi:type="arc" />
      <path
         transform="matrix(0.44533409,0,0,0.52392249,87.177384,148.40781)"
         d="m 172.73609,474.04984 c 0,4.74208 -4.5226,8.58629 -10.10152,8.58629 -5.57892,0 -10.10153,-3.84421 -10.10153,-8.58629 0,-4.74209 4.52261,-8.5863 10.10153,-8.5863 5.57892,0 10.10152,3.84421 10.10152,8.5863 z"
         sodipodi:ry="8.586297"
         sodipodi:rx="10.101525"
         sodipodi:cy="474.04984"
         sodipodi:cx="162.63457"
         id="path3054-0-9-8"
         style="fill:#ffffff;fill-opacity:1;fill-rule:nonzero;stroke:#002225;stroke-width:1.77165353;stroke-linecap:round;stroke-linejoin:round;stroke-miterlimit:4;stroke-opacity:1;stroke-dasharray:none;stroke-dashoffset:0"
         sodipodi:type="arc" />
      <path
         transform="matrix(0.44533409,0,0,0.52392249,144.75608,147.39766)"
         d="m 172.73609,474.04984 c 0,4.74208 -4.5226,8.58629 -10.10152,8.58629 -5.57892,0 -10.10153,-3.84421 -10.10153,-8.58629 0,-4.74209 4.52261,-8.5863 10.10153,-8.5863 5.57892,0 10.10152,3.84421 10.10152,8.5863 z"
         sodipodi:ry="8.586297"
         sodipodi:rx="10.101525"
         sodipodi:cy="474.04984"
         sodipodi:cx="162.63457"
         id="path3054-0-9-82"
         style="fill:#ffffff;fill-opacity:1;fill-rule:nonzero;stroke:#002225;stroke-width:1.77165353;stroke-linecap:round;stroke-linejoin:round;stroke-miterlimit:4;stroke-opacity:1;stroke-dasharray:none;stroke-dashoffset:0"
         sodipodi:type="arc" />
      <path
         transform="matrix(0.44533409,0,0,0.52392249,117.48196,156.48903)"
         d="m 172.73609,474.04984 c 0,4.74208 -4.5226,8.58629 -10.10152,8.58629 -5.57892,0 -10.10153,-3.84421 -10.10153,-8.58629 0,-4.74209 4.52261,-8.5863 10.10153,-8.5863 5.57892,0 10.10152,3.84421 10.10152,8.5863 z"
         sodipodi:ry="8.586297"
         sodipodi:rx="10.101525"
         sodipodi:cy="474.04984"
         sodipodi:cx="162.63457"
         id="path3054-0-9-45"
         style="fill:#ffffff;fill-opacity:1;fill-rule:nonzero;stroke:#002225;stroke-width:1.77165353;stroke-linecap:round;stroke-linejoin:round;stroke-miterlimit:4;stroke-opacity:1;stroke-dasharray:none;stroke-dashoffset:0"
         sodipodi:type="arc" />
    </g>
    <path
       sodipodi:type="arc"
       style="fill:#c87137;fill-opacity:1;fill-rule:nonzero;stroke:#002225;stroke-width:1.77165353;stroke-linecap:round;stroke-linejoin:round;stroke-miterlimit:4;stroke-opacity:1;stroke-dasharray:none;stroke-dashoffset:0"
       id="path3438"
       sodipodi:cx="198.21428"
       sodipodi:cy="439.68362"
       sodipodi:rx="3.9285715"
       sodipodi:ry="0.17857143"
       d="m 202.14285,439.68362 a 3.9285715,0.17857143 0 1 1 -0.71468,-0.10269 l -3.21389,0.10269 z"
       sodipodi:start="0"
       sodipodi:end="5.670454" />
    <path
       sodipodi:type="arc"
       style="fill:#c87137;fill-opacity:1;fill-rule:nonzero;stroke:#002225;stroke-width:1.77165353;stroke-linecap:round;stroke-linejoin:round;stroke-miterlimit:4;stroke-opacity:1;stroke-dasharray:none;stroke-dashoffset:0"
       id="path3440"
       sodipodi:cx="197.67857"
       sodipodi:cy="443.07648"
       sodipodi:rx="1.6071428"
       sodipodi:ry="0.35714287"
       d="m 199.28572,443.07648 a 1.6071428,0.35714287 0 1 1 -0.29237,-0.2054 l -1.31478,0.2054 z"
       sodipodi:start="0"
       sodipodi:end="5.670454" />
    <path
       sodipodi:type="arc"
       style="fill:#c87137;fill-opacity:1;fill-rule:nonzero;stroke:#002225;stroke-width:1.77165353;stroke-linecap:round;stroke-linejoin:round;stroke-miterlimit:4;stroke-opacity:1;stroke-dasharray:none;stroke-dashoffset:0"
       id="path3442"
       sodipodi:cx="197.85715"
       sodipodi:cy="447.36218"
       sodipodi:rx="0.71428573"
       sodipodi:ry="0.71428573"
       d="m 198.57143,447.36218 a 0.71428573,0.71428573 0 1 1 -0.12994,-0.41079 l -0.58434,0.41079 z"
       sodipodi:start="0"
       sodipodi:end="5.670454" />
  </g>
  <g
     id="g3342"
     inkscape:groupmode="layer"
     inkscape:label="Layer 1 copy"
     sodipodi:insensitive="true">
    <path
       inkscape:transform-center-y="-2.7104439"
       inkscape:transform-center-x="-8.4577545"
       sodipodi:nodetypes="sssss"
       inkscape:connector-curvature="0"
       id="path3344"
       d="m 456.40757,476.81681 c -0.27053,12.27064 -12.86681,37.10105 -19.00213,36.9658 -6.13533,-0.13526 -3.82033,-10.03638 -3.54981,-22.30702 0.27052,-12.27064 -1.60586,-22.26416 4.52945,-22.12889 6.13533,0.13526 18.29302,-4.80053 18.02249,7.47011 z"
       style="fill:#e9c6af;fill-opacity:1;fill-rule:nonzero;stroke:#002225;stroke-width:1.77165353;stroke-linecap:round;stroke-linejoin:round;stroke-miterlimit:4;stroke-opacity:1;stroke-dashoffset:0" />
    <path
       inkscape:transform-center-y="14.879865"
       inkscape:transform-center-x="12.105703"
       sodipodi:nodetypes="sssss"
       inkscape:connector-curvature="0"
       id="path3346"
       d="m 376.19515,437.43696 c 0.12261,12.273 12.41872,37.25344 18.55523,37.19215 6.13649,-0.0613 3.941,-9.98961 3.81839,-22.26263 -0.1226,-12.273 1.87409,-22.24318 -4.26242,-22.18188 -6.1365,0.0613 -18.23383,-5.02062 -18.1112,7.25236 z"
       style="fill:#e9c6af;fill-opacity:1;fill-rule:nonzero;stroke:#002225;stroke-width:1.77165353;stroke-linecap:round;stroke-linejoin:round;stroke-miterlimit:4;stroke-opacity:1;stroke-dashoffset:0" />
    <path
       sodipodi:nodetypes="sssss"
       inkscape:connector-curvature="0"
       id="path3348"
       d="m 456.33244,452.62941 c -2.0086,2.88545 1.34591,11.15479 -1.3106,9.30554 -2.6565,-1.84924 -10.31807,-13.11679 -8.30946,-16.00224 2.0086,-2.88546 5.79044,-3.72545 8.44696,-1.8762 2.65649,1.84923 3.1817,5.68746 1.17306,8.57291 z"
       style="fill:#2b1100;fill-opacity:1;fill-rule:nonzero;stroke:#002225;stroke-width:1.16193712;stroke-linecap:round;stroke-linejoin:round;stroke-miterlimit:4;stroke-opacity:1;stroke-dashoffset:0" />
    <path
       inkscape:transform-center-y="27.721767"
       inkscape:transform-center-x="1.8543833"
       sodipodi:nodetypes="sssss"
       inkscape:connector-curvature="0"
       id="path3370"
       d="m 420.8593,397.92822 c 1.7431,3.05316 -2.336,10.99018 0.47495,9.38538 2.81092,-1.60482 11.44742,-12.1437 9.70432,-15.19687 -1.74313,-3.05318 -5.43488,-4.22732 -8.24581,-2.62252 -2.81092,1.6048 -3.67658,5.38083 -1.93346,8.43401 z"
       style="fill:#2b1100;fill-opacity:1;fill-rule:nonzero;stroke:#002225;stroke-width:1.16193712;stroke-linecap:round;stroke-linejoin:round;stroke-miterlimit:4;stroke-opacity:1;stroke-dashoffset:0" />
    <g
       transform="matrix(2.5839976,0,0,2.5839976,-557.02455,-844.69541)"
       id="g3372">
      <path
         sodipodi:type="arc"
         style="fill:#aa4400;fill-opacity:1;fill-rule:nonzero;stroke:#002225;stroke-width:1.77165353;stroke-linecap:round;stroke-linejoin:round;stroke-miterlimit:4;stroke-opacity:1;stroke-dasharray:none;stroke-dashoffset:0"
         id="path3374"
         sodipodi:cx="406.08133"
         sodipodi:cy="355.33542"
         sodipodi:rx="21.213203"
         sodipodi:ry="34.323685"
         d="m 427.29453,355.33542 a 21.213203,34.323685 0 1 1 -42.4264,0 21.213203,34.323685 0 1 1 42.4264,0 z"
         transform="matrix(0.87089609,0,0,0.87089609,17.248746,254.47169)" />
      <path
         style="fill:#ffe6d5;fill-opacity:1;fill-rule:nonzero;stroke:#002225;stroke-width:0.63753504;stroke-linecap:round;stroke-linejoin:round;stroke-miterlimit:4;stroke-opacity:1;stroke-dashoffset:0"
         d="m 357.79229,543.40154 26.53598,-0.3635 3.63506,8.72415 -34.16961,0.72702 z"
         id="path3376"
         inkscape:connector-curvature="0"
         sodipodi:nodetypes="ccccc" />
      <path
         style="fill:#ffe6d5;fill-opacity:1;fill-rule:nonzero;stroke:#002225;stroke-width:0.63753504;stroke-linecap:round;stroke-linejoin:round;stroke-miterlimit:4;stroke-opacity:1;stroke-dashoffset:0"
         d="m 358.39549,586.59401 24.70241,-0.26429 4.63909,-9.26182 -33.79868,0.65437 z"
         id="path3378"
         inkscape:connector-curvature="0"
         sodipodi:nodetypes="ccccc" />
      <rect
         style="fill:#ffe6d5;fill-opacity:1;fill-rule:nonzero;stroke:#002225;stroke-width:0.63753504;stroke-linecap:round;stroke-linejoin:round;stroke-miterlimit:4;stroke-opacity:1;stroke-dasharray:none;stroke-dashoffset:0"
         id="rect3380"
         width="3.9985719"
         height="13.813248"
         x="368.69748"
         y="557.57831"
         ry="1.9992859" />
      <rect
         style="fill:#ffe6d5;fill-opacity:1;fill-rule:nonzero;stroke:#002225;stroke-width:0.39720502;stroke-linecap:round;stroke-linejoin:round;stroke-miterlimit:4;stroke-opacity:1;stroke-dasharray:none;stroke-dashoffset:0"
         id="rect3382"
         width="2.0578628"
         height="10.418512"
         x="559.82092"
         y="-375.72427"
         ry="1.5079426"
         transform="matrix(0,1,-1,0,0,0)" />
      <rect
         style="fill:#ffe6d5;fill-opacity:1;fill-rule:nonzero;stroke:#002225;stroke-width:0.39720502;stroke-linecap:round;stroke-linejoin:round;stroke-miterlimit:4;stroke-opacity:1;stroke-dasharray:none;stroke-dashoffset:0"
         id="rect3384"
         width="2.0578628"
         height="10.418512"
         x="563.09247"
         y="-376.08777"
         ry="1.5079426"
         transform="matrix(0,1,-1,0,0,0)" />
      <rect
         style="fill:#ffe6d5;fill-opacity:1;fill-rule:nonzero;stroke:#002225;stroke-width:0.39720502;stroke-linecap:round;stroke-linejoin:round;stroke-miterlimit:4;stroke-opacity:1;stroke-dasharray:none;stroke-dashoffset:0"
         id="rect3386"
         width="2.0578628"
         height="10.418512"
         x="567.09106"
         y="-376.0878"
         ry="1.5079426"
         transform="matrix(0,1,-1,0,0,0)" />
    </g>
    <path
       inkscape:transform-center-y="14.879865"
       inkscape:transform-center-x="-12.105702"
       sodipodi:nodetypes="ccc"
       inkscape:connector-curvature="0"
       id="path3388"
       d="m 391.91715,492.04038 c -12.49587,35.52971 -44.99046,-5.73647 -20.13151,-4.72697 6.1365,0.0613 20.25414,-7.54601 20.13151,4.72697 z"
       style="fill:#e9c6af;fill-opacity:1;fill-rule:nonzero;stroke:#002225;stroke-width:1.77165353;stroke-linecap:round;stroke-linejoin:round;stroke-miterlimit:4;stroke-opacity:1;stroke-dashoffset:0" />
  </g>
  <g
     inkscape:groupmode="layer"
     id="layer3"
     inkscape:label="legLayot" />
  <g
     inkscape:groupmode="layer"
     id="layer2"
     inkscape:label="bodyLayout" />
</svg>
