<?xml version="1.0" encoding="UTF-8" standalone="no"?>
<!-- Created with Inkscape (http://www.inkscape.org/) -->

<svg
   xmlns:dc="http://purl.org/dc/elements/1.1/"
   xmlns:cc="http://creativecommons.org/ns#"
   xmlns:rdf="http://www.w3.org/1999/02/22-rdf-syntax-ns#"
   xmlns:svg="http://www.w3.org/2000/svg"
   xmlns="http://www.w3.org/2000/svg"
   xmlns:sodipodi="http://sodipodi.sourceforge.net/DTD/sodipodi-0.dtd"
   xmlns:inkscape="http://www.inkscape.org/namespaces/inkscape"
   id="svg2995"
   version="1.1"
   inkscape:version="0.48.5 r10040"
   width="806"
   height="805"
   sodipodi:docname="swords.svg">
  <metadata
     id="metadata3001">
    <rdf:RDF>
      <cc:Work
         rdf:about="">
        <dc:format>image/svg+xml</dc:format>
        <dc:type
           rdf:resource="http://purl.org/dc/dcmitype/StillImage" />
        <dc:title></dc:title>
      </cc:Work>
    </rdf:RDF>
  </metadata>
  <defs
     id="defs2999" />
  <sodipodi:namedview
     pagecolor="#ffffff"
     bordercolor="#666666"
     borderopacity="1"
     objecttolerance="10"
     gridtolerance="10"
     guidetolerance="10"
     inkscape:pageopacity="0"
     inkscape:pageshadow="2"
     inkscape:window-width="1131"
     inkscape:window-height="892"
     id="namedview2997"
     showgrid="false"
     inkscape:zoom="0.41460174"
     inkscape:cx="-215.40518"
     inkscape:cy="2462.8044"
     inkscape:window-x="0"
     inkscape:window-y="0"
     inkscape:window-maximized="0"
     inkscape:current-layer="g3005" />
  <g
     id="g3005"
     transform="translate(92.097457,139.85169)">
    <path
       style="fill:#fdfdfd"
       d="m 1214.322,-163.72881 0,-402.5 403,0 403,0 0,402.5 0,402.5 -403,0 -403,0 0,-402.5 z"
       id="path3021"
       inkscape:connector-curvature="0" />
    <path
       style="fill:#d1d1d1"
       d="m -11.661351,47.004237 c 0.49777,-0.4125 1.24088,-1.2 1.65135,-1.75 0.4259102,-0.57068 0.7529002,-0.24868 0.7616402,0.75 0.009,0.97279 -0.72489,1.75 -1.6513602,1.75 -0.91666,0 -1.2594,-0.3375 -0.76163,-0.75 z m -726.503009,-3.28106 c -30.17561,-6.3095 -53.9669,-25.20554 -67.07959,-53.2774297 -6.46289,-13.8358603 -7.45866,-18.9346103 -7.45866,-38.1915103 0,-19.93472 0.99959,-24.67184 8.45597,-40.07375 11.59389,-23.948307 31.11315,-40.921367 55.95917,-48.659527 l 7.2781,-2.26672 11.38816,-13.64961 c 6.26349,-7.50729 11.38816,-14.02577 11.38816,-14.48553 0,-0.45976 -20.453,-21.31743 -45.45112,-46.35039 -34.29043,-34.33823 -45.94883,-46.61946 -47.47804,-50.01447 -2.76956,-6.14875 -2.77006,-16.84927 -0.001,-23 2.8406,-6.30982 103.11356,-106.91608 110.43023,-110.7973 6.85445,-3.63603 17.82366,-3.78265 24.5,-0.32749 2.98133,1.54291 17.74864,15.53731 43.75732,41.4671 30.9939,30.89988 39.56831,38.92978 40.73478,38.14796 0.81261,-0.54465 83.17628,-96.39027 183.03038,-212.99027 99.8541,-116.6 183.38966,-213.93076 185.63458,-216.29057 2.24492,-2.35982 5.81003,-5.17232 7.92247,-6.25 3.73085,-1.90334 6.44122,-1.95943 94.68485,-1.95943 l 90.844059,0 4.65466,2.9519 c 5.14025,3.25985 9.93608,9.23768 11.9354,14.87705 1.03034,2.90621 1.3015,21.69278 1.3015,90.17105 l 0,86.5 -2.30267,5.08617 c -1.26647,2.7974 -4.64147,7.36319 -7.5,10.1462 -2.85853,2.78302 -100.372329,86.56085 -216.697329,186.17297 -116.325,99.61211 -211.94562,181.78053 -212.49027,182.59648 -0.7831,1.17319 7.19747,9.6962 38.14796,40.74086 25.92979,26.00868 39.92419,40.775987 41.4671,43.757317 3.45516,6.67634 3.30854,17.64555 -0.32749,24.5 -3.88122,7.31667 -104.48748,107.58963 -110.7973,110.43023 -6.15073,2.76899 -16.85125,2.76849 -23,-10e-4 -3.39501,-1.52921 -15.67624,-13.18761 -50.01447,-47.4780397 -25.03296,-24.9981903 -45.89063,-45.4511903 -46.35039,-45.4511903 -0.45976,0 -7.00834,5.14397 -14.55241,11.43106 -13.63258,11.36112 -13.72695,11.46868 -15.42683,17.58281 -1.98729,7.14788 -7.02079,17.6838003 -12.11487,25.3583503 -11.42068,17.2059897 -29.17951,30.2664397 -50.54103,37.1696097 -7.50095,2.424 -10.3218,2.78251 -24,3.05026 -8.525,0.16687 -17.49409,-0.11354 -19.93131,-0.62315 z"
       id="path3019"
       inkscape:connector-curvature="0" />
    <path
       style="fill:#a8a8a8"
       d="m -444.8605,1257.9153 c 0.49777,-0.4125 1.24088,-1.2 1.65135,-1.75 0.42591,-0.5707 0.7529,-0.2487 0.76164,0.75 0.009,0.9727 -0.72489,1.75 -1.65136,1.75 -0.91666,0 -1.2594,-0.3375 -0.76163,-0.75 z m -719.9748,-3.3316 c -26.9565,-3.6825 -50.3823,-18.0747 -65.506,-40.2451 -17.5305,-25.6989 -20.3765,-61.0636 -7.1803,-89.2236 6.9327,-14.794 15.2307,-25.2317 27.468,-34.5509 9.313,-7.0922 17.1821,-11.2719 28.1214,-14.9365 l 8,-2.68 11.7441,-13.8912 c 6.4593,-7.6401 11.7468,-14.3346 11.75,-14.8767 0,-0.542 -20.4495,-21.467 -45.4506,-46.49998 -50.0387,-50.10253 -49.7935,-49.79956 -49.7935,-61.51447 0,-11.79951 -0.7364,-10.9074 55.4505,-67.17327 35.9068,-35.95722 52.6177,-52.01373 56.2005,-53.99984 6.8902,-3.81951 17.7403,-4.01073 24.599,-0.43352 2.9523,1.53981 18.1266,15.91871 44.121,41.80848 l 39.6209,39.46147 7.6582,-8.83166 c 4.2119,-4.85741 88.0825,-102.64708 186.379,-217.31037 162.69151,-189.78034 179.20201,-208.72726 184.08509,-211.24999 l 5.36419,-2.7713 88.13581,0.022 c 83.80575,0.0209 88.3373,0.11346 92.23693,1.88445 5.38175,2.44408 11.13379,8.29133 13.77616,14.00419 2.11224,4.56673 2.12272,5.01942 2.12272,91.6601 l 0,87.0707 -3.00905,5.9293 c -2.87503,5.66521 -12.68974,14.22918 -220.36677,192.28424 l -217.35773,186.35487 39.50564,39.6451 c 26.05805,26.15 40.30148,41.1768 41.8436,44.1451 3.56704,6.8656 3.37179,17.7181 -0.44258,24.5989 -1.98611,3.5829 -18.04262,20.2937 -53.99984,56.2005 -56.26587,56.187 -55.37376,55.4506 -67.17327,55.4506 -11.69247,0 -11.41563,0.224 -61.52456,-49.8014 -25.03854,-24.9967 -45.96354,-45.446 -46.50004,-45.4428 -0.5365,0 -7.2264,5.2908 -14.8666,11.75 l -13.8911,11.7442 -2.6786,8 c -9.5476,28.5152 -30.4312,49.6599 -58.5391,59.271 -11.8047,4.0365 -28.2232,5.743 -39.9031,4.1474 z"
       id="path3017"
       inkscape:connector-curvature="0" />
    <path
       style="fill:#838383"
       d="m 804,804.55902 c 0,-0.24254 0.45,-0.7191 1,-1.05902 0.55,-0.33992 1,-0.14148 1,0.44098 0,0.58246 -0.45,1.05902 -1,1.05902 -0.55,0 -1,-0.19844 -1,-0.44098 z M 78.5,799.48916 C 42.980554,792.92078 15.302985,767.1919 5.8987112,731.9995 c -3.247551,-12.1529 -3.247551,-32.8461 0,-44.999 5.5075408,-20.61016 16.8874178,-37.66205 33.4768738,-50.16258 9.364969,-7.05672 16.196289,-10.62728 27.457479,-14.35135 L 75.166129,619.73083 87.083064,605.482 C 93.637379,597.64515 99,590.85404 99,590.39066 99,589.92727 78.111514,568.6123 52.581142,543.02407 6.6039429,496.94266 6.1461036,496.4437 4.4616317,490.58299 c -2.129641,-7.40958 -1.465768,-13.9674 2.071994,-20.46744 1.7933364,-3.29495 18.9145733,-21.06313 54.2928603,-56.34439 48.480424,-48.34745 52.004014,-51.63885 57.021974,-53.26454 6.45472,-2.09116 14.89198,-1.69453 20.65154,0.97081 2.64952,1.22612 17.34546,15.13161 43.52804,41.18682 C 203.76846,424.29891 222.07361,442 222.70615,442 223.3387,442 307.21753,344.74563 409.10356,225.87918 510.98959,107.01273 596.10517,8.4875678 598.2493,6.9343712 600.39342,5.3811747 604.47697,3.6078011 607.32385,2.9935411 610.97345,2.2060821 637.5682,1.9686159 697.5,2.1883524 L 782.5,2.5 788,5.5841376 c 5.97697,3.3516023 11.20736,9.9013624 12.96749,16.2385534 0.65768,2.367918 1.02334,33.619884 1.02693,87.768379 0.006,90.15863 0.0496,89.32532 -5.04481,96.4797 -1.25934,1.76858 -99.63819,86.659 -218.61966,188.64536 C 459.34848,496.70249 362,580.66294 362,581.2949 c 0,0.63196 17.70109,18.93664 39.33575,40.67706 25.22794,25.35128 40.02229,40.96264 41.25,43.52804 1.39281,2.91041 1.91425,6.17917 1.91425,12 0,6.89313 -0.37111,8.62261 -2.68223,12.5 -3.92324,6.58207 -103.2126,105.24949 -108.63616,107.95568 -6.20559,3.09641 -12.70115,3.61422 -19.7646,1.5756 -5.85649,-1.69027 -6.393,-2.18248 -52.45064,-48.11951 C 235.37287,725.8853 214.05791,705 213.59978,705 c -0.45813,0 -7.29398,5.40365 -15.19079,12.0081 -13.99775,11.70695 -14.39892,12.15211 -15.99604,17.75 -2.74914,9.63572 -9.93473,23.31148 -16.73333,31.84721 C 145.127,792.4094 110.61364,805.42772 78.5,799.48916 z M 535.90051,359.30528 746.92556,178.5 746.96278,117.75 747,57 l -60.75,0.03659 -60.75,0.03659 -180,210.00936 c -99,115.50514 -180.63926,210.92162 -181.42058,212.03661 -1.33915,1.91106 0.29447,3.7432 28.5,31.96337 16.45632,16.46485 30.45506,29.73179 31.10831,29.48208 0.65325,-0.24972 96.149,-81.81641 212.21278,-181.25931 z"
       id="path3015"
       inkscape:connector-curvature="0" />
    <path
       style="fill:#727272"
       d="m 804,804.55902 c 0,-0.24254 0.45,-0.7191 1,-1.05902 0.55,-0.33992 1,-0.14148 1,0.44098 0,0.58246 -0.45,1.05902 -1,1.05902 -0.55,0 -1,-0.19844 -1,-0.44098 z M 84.5,799.90903 C 55.630082,796.86125 28.840366,778.86436 14.672407,753 -12.712458,703.00748 12.619456,640.51794 67.533298,622.60113 l 8.033297,-2.62104 11.716703,-14.10067 c 6.444186,-7.75536 11.71704,-14.83838 11.717453,-15.74004 4.14e-4,-0.90166 -20.362086,-21.97497 -45.25,-46.82958 -29.416065,-29.3767 -46.0282405,-46.69833 -47.4725813,-49.5 -1.5393192,-2.9859 -2.2304836,-6.11727 -2.25,-10.19378 -0.058952,-12.31369 -2.6965803,-9.09905 54.8869323,-66.894 34.747108,-34.87469 53.958078,-53.44403 56.632968,-54.74145 6.17142,-2.99338 12.23188,-3.47449 19.05006,-1.51228 5.81722,1.67414 6.48657,2.2816 46.66581,42.35119 32.04414,31.95668 41.0774,40.44176 42.22931,39.66661 C 224.2992,441.94374 308.02972,344.525 409.56107,226 511.09242,107.475 595.76158,9.2776467 597.71476,7.7836592 604.82736,2.3432274 601.97046,2.5 694,2.5 c 81.46797,0 85.73124,0.089193 90.40359,1.891366 6.57127,2.5346029 11.85157,7.506599 14.72686,13.866991 L 801.5,23.5 l 0,86 c 0,98.51002 0.69376,90.95712 -9.24869,100.69024 C 789.08809,213.28686 691.1,297.54586 574.5,397.43245 457.9,497.31905 362.05626,579.70318 361.51391,580.50828 c -0.77483,1.15022 7.72341,10.19716 39.66661,42.22778 40.06959,40.17924 40.67705,40.84859 42.35119,46.66581 1.96221,6.81818 1.4811,12.87864 -1.51228,19.05006 -1.29742,2.67489 -19.86676,21.88586 -54.74145,56.63297 C 329.69739,802.45484 332.67108,800 320.7561,800 c -3.03152,0 -7.25431,-0.71429 -9.38398,-1.58732 -2.76137,-1.13198 -17.0778,-14.75779 -49.90754,-47.5 C 236.1451,725.66071 214.69927,705 213.80718,705 c -1.5484,0 -26.97732,20.43493 -29.53162,23.73191 -0.67345,0.86925 -1.95398,4.08996 -2.84564,7.15714 -11.98644,41.2319 -53.44022,68.61117 -96.92992,64.01998 z m 26.09175,-57.87958 C 117.95223,738.4059 124.10826,731.98378 127.8742,724 c 2.19288,-4.64889 2.59435,-6.89272 2.59435,-14.5 0,-7.60728 -0.40147,-9.85111 -2.59435,-14.5 -3.84057,-8.142 -9.90434,-14.39722 -17.65581,-18.21325 -6.06439,-2.98549 -7.5032,-3.28531 -15.697363,-3.27102 -7.63639,0.0133 -9.892105,0.42165 -14.696173,2.6604 -7.932736,3.69675 -14.217078,9.84387 -18.074921,17.68026 -2.944618,5.98137 -3.248456,7.44904 -3.234207,15.62258 0.01328,7.61461 0.424109,9.89722 2.635165,14.64104 8.927718,19.15443 30.810371,27.0812 49.440859,17.90944 z M 252.75171,551.2527 127.00608,425.50708 98.500493,453.99951 69.994902,482.49194 195.74562,608.24563 321.49634,733.99931 349.99683,705.49882 378.49733,676.99832 252.75171,551.2527 z M 536.31576,360.03743 748,178.57486 748,117.28743 748,56 686.71257,56 625.42514,56 443.96257,267.67886 c -99.80441,116.42337 -181.62045,212.3377 -181.81342,213.14295 -0.47196,1.96946 58.84247,61.32096 60.91661,60.95469 0.86116,-0.15208 96.82366,-81.93466 213.25,-181.73907 z"
       id="path3013"
       inkscape:connector-curvature="0" />
    <path
       style="fill:#4d4d4d"
       d="m 804,804.55902 c 0,-0.24254 0.45,-0.7191 1,-1.05902 0.55,-0.33992 1,-0.14148 1,0.44098 0,0.58246 -0.45,1.05902 -1,1.05902 -0.55,0 -1,-0.19844 -1,-0.44098 z M 77.834478,798.50161 C 43.360474,791.95716 16.06898,766.3632 6.8508359,731.93317 3.5936494,719.76748 3.5812685,699.03663 6.8240406,687.06683 15.034297,656.76095 36.375505,633.85016 65.678989,623.88328 c 4.791928,-1.62986 9.376008,-3.50786 10.186845,-4.17333 2.151441,-1.76574 23.228983,-26.97201 23.869876,-28.54558 0.33578,-0.82443 -17.053605,-19.00443 -45.434321,-47.5 C 24.066751,513.30738 7.6763013,496.13034 6.4341995,493.5 c -1.2835446,-2.7181 -1.8939803,-6.24332 -1.9047854,-11 -0.013258,-5.83644 0.4563027,-7.85392 2.82488,-12.1372 C 9.3747312,466.70908 24.966581,450.50682 61.347538,414.25572 107.37496,368.3926 112.99376,363.12125 117.42814,361.64293 120.13862,360.73932 124.36141,360 126.81212,360 c 10.51112,0 9.56834,-0.75596 53.32389,42.75765 30.52745,30.35867 41.13552,40.32812 42.64404,40.07684 1.22516,-0.20408 74.52265,-84.97901 188.00261,-217.44136 C 575.4066,33.231661 597.33579,8.0112888 601.63861,5.8931287 L 606.5,3.5 l 88,0 88,0 4.01311,2.1494695 c 5.10064,2.7319702 9.10545,6.7367775 11.83742,11.8374245 L 800.5,21.5 l 0,88 0,88 -2.39116,4.85732 c -2.11551,4.29738 -27.4193,26.29911 -219.5,190.85604 -135.48832,116.07382 -217.23648,186.76803 -217.44836,188.04508 -0.2589,1.5604 9.00261,11.38109 39,41.35472 21.63674,21.6196 40.23952,41.01352 41.33952,43.0976 2.73773,5.18696 2.78493,17.14546 0.0899,22.78924 -2.79016,5.84309 -101.19488,104.40797 -107.9905,108.16626 -4.24323,2.3467 -6.27476,2.81756 -12.09944,2.80433 -4.75668,-0.0108 -8.2819,-0.62124 -11,-1.90479 -2.63034,-1.2421 -19.80738,-17.63255 -50.16437,-47.86719 -28.61529,-28.49995 -46.67211,-45.76897 -47.5,-45.42764 -1.52739,0.62972 -21.67415,17.31579 -26.62614,22.05245 -2.1044,2.0129 -3.8615,5.1116 -4.87457,8.59645 -8.65848,29.78412 -33.8716,54.32666 -63.83492,62.13713 -10.55644,2.75173 -29.20282,3.43082 -39.665522,1.44461 z m 33.314432,-55.25154 c 7.82091,-3.85332 13.96816,-10.13409 17.69068,-18.07492 2.32484,-4.95932 2.66041,-6.93649 2.66041,-15.67515 0,-8.73866 -0.33557,-10.71583 -2.66041,-15.67515 -3.72477,-7.94563 -9.86952,-14.22196 -17.69598,-18.07492 C 105.02422,672.73737 103.8086,672.5 94.5,672.5 c -9.308596,0 -10.524224,0.23737 -16.643605,3.24993 C 64.972009,682.09289 57.787249,693.29961 57.180483,708 c -0.283786,6.87541 0.06374,9.60516 1.818276,14.28231 3.928585,10.4726 11.126013,17.90162 21.594293,22.28912 5.059966,2.12075 7.20121,2.43651 14.933281,2.20216 7.850177,-0.23794 9.885847,-0.69707 15.622577,-3.52352 z M 351.50299,705.99701 380.49304,676.99403 253.74951,550.25049 127.00597,423.50696 98.002987,452.49701 C 82.051344,468.44154 69,481.93931 69,482.49205 69,483.80804 320.18901,735 321.50498,735 c 0.55437,0 14.05348,-13.05134 29.99801,-29.00299 z M 534.24884,362.90137 C 649.88698,263.84712 745.51595,181.69301 746.75766,180.33669 l 2.25766,-2.46603 -0.25766,-61.18533 L 748.5,55.5 686.89836,55.242428 625.29673,54.984855 443.64923,266.90839 c -99.90613,116.55794 -181.9366,212.67691 -182.28994,213.5977 -0.48056,1.25231 7.02034,9.33695 29.76743,32.08404 C 307.85214,529.31556 322.09033,543 322.76713,543 c 0.6768,0 95.84357,-81.04439 211.48171,-180.09863 z"
       id="path3011"
       inkscape:connector-curvature="0" />
    <path
       style="fill:#000000"
       d="m 1192.8559,-372.24183 c 0,-0.24254 0.45,-0.7191 1,-1.05902 0.55,-0.33992 1,-0.14148 1,0.44098 0,0.58246 -0.45,1.05902 -1,1.05902 -0.55,0 -1,-0.19844 -1,-0.44098 z m -726.36715,-7.04876 c -19.58053,-4.06989 -34.29619,-12.13789 -47.69416,-26.14876 -11.09054,-11.59788 -17.5288,-22.93343 -22.13184,-38.96647 -1.90388,-6.63152 -2.26663,-10.29562 -2.26663,-22.89502 0,-16.8435 1.57153,-24.37977 7.97319,-38.23531 10.32224,-22.34115 31.81858,-40.78187 55.59758,-47.69461 3.06717,-0.89166 6.28789,-2.17219 7.15714,-2.84564 2.11504,-1.63861 23.84097,-27.84508 24.49296,-29.54416 0.31087,-0.81012 -17.61105,-19.54199 -45.45465,-47.50887 -30.96889,-31.106 -46.56752,-47.47658 -47.80559,-50.17141 -2.45747,-5.34904 -3.03663,-12.47062 -1.48476,-18.25726 1.17792,-4.39226 5.15937,-8.64291 53.87793,-57.52072 34.88678,-35.00082 53.97546,-53.44221 56.67173,-54.75 2.6597,-1.29005 6.11795,-1.96864 10,-1.96225 10.9629,0.0181 12.03225,0.87245 54.92947,43.88772 26.03162,26.10326 39.67753,39.10251 41.04769,39.10251 1.49256,0 52.23574,-58.58503 186.00481,-214.75 101.17382,-118.11246 185.45862,-216.22356 187.29962,-218.02466 7.3851,-7.2247 0.102,-6.6933 96.15266,-7.0155 66.2908,-0.2223 87.5513,-0 91,0.9447 5.8503,1.6053 14.0685,9.6555 15.7839,15.4615 1.5475,5.2375 1.7552,171.90322 0.2211,177.4253 -0.5411,1.94774 -2.0678,5.0107 -3.3928,6.80658 -1.325,1.79588 -99.7672,86.70874 -218.76056,188.69523 -144.91423,124.20265 -216.46385,186.14613 -216.69153,187.59885 -0.26832,1.712 7.99084,10.50926 39.20888,41.76343 29.69022,29.72459 40.05212,40.71631 41.56795,44.09457 2.68558,5.98521 2.71024,14.64505 0.0578,20.28795 -1.42614,3.03398 -17.23925,19.45221 -54.75,56.84511 -48.84848,48.69502 -53.09501,52.67292 -57.48741,53.85088 -5.78664,1.55186 -12.90822,0.9727 -18.25726,-1.48477 -2.69516,-1.23822 -19.09219,-16.86342 -50.2654,-47.89936 -43.65896,-43.46671 -46.38515,-45.98688 -48.39099,-44.73422 -1.16907,0.7301 -8.29251,6.47392 -15.82985,12.76405 -13.55418,11.31133 -13.72269,11.50281 -15.38565,17.48416 -8.22443,29.58166 -33.09551,53.99383 -63.12811,61.96329 -10.38272,2.75517 -30.09728,3.46388 -39.86718,1.43316 z m 33.98094,-52.96903 c 8.63423,-4.26727 14.31855,-10.19433 18.74092,-19.54123 2.71063,-5.72904 3.07953,-7.56746 3.11021,-15.49999 0.0311,-8.05034 -0.29336,-9.68587 -3.07539,-15.5 -4.55685,-9.5233 -10.13856,-15.2725 -19.15296,-19.72766 -7.13826,-3.52792 -8.22267,-3.77234 -16.73654,-3.77234 -8.49766,0 -9.60679,0.24863 -16.66041,3.73472 -9.10424,4.49956 -14.77433,10.29257 -19.17008,19.58567 -2.81723,5.95593 -3.15955,7.65469 -3.15955,15.67961 0,8.02492 0.34232,9.72368 3.15955,15.6796 4.01056,8.47876 9.73165,14.68956 17.19614,18.6681 7.85197,4.18505 12.21723,5.15474 21.06343,4.67898 6.01058,-0.32326 8.81444,-1.08423 14.68468,-3.98546 z m 240.12999,-36.78486 c 16.09094,-16.08401 29.25625,-29.92084 29.25625,-30.74853 0,-1.96128 -252.03111,-254.00783 -253.99227,-254.00783 -1.63962,0 -60.00773,57.86663 -60.00773,59.49217 0,1.30764 253.18472,254.50782 254.49227,254.50782 0.54738,0 14.16054,-13.15964 30.25148,-29.24363 z m 184.06536,-345.00091 c 115.97906,-99.4095 211.62146,-181.57375 212.53866,-182.58723 1.525,-1.68511 1.6455,-7.13718 1.4099,-63.75548 l -0.2577,-61.9127 -61.9128,-0.2577 c -57.0219,-0.2374 -62.0607,-0.1238 -63.7862,1.4378 -4.1985,3.7996 -363.32779,423.51134 -363.65186,424.99723 -0.48602,2.2285 60.73217,63.47498 63.06991,63.09906 0.94546,-0.15204 96.611,-81.61148 212.59009,-181.02098 z"
       id="path3009"
       inkscape:connector-curvature="0"
       inkscape:export-xdpi="13.485343"
       inkscape:export-ydpi="13.485343"
       inkscape:export-filename="D:\COURS\Unity\StratBrawl_2\RessourceStratBrawl\sword_black.png" />
    <path
       style="fill:#000000"
       d="m 169.88392,-1097.4426 c 0,-0.2425 0.45,-0.7191 1,-1.059 0.55,-0.3399 1,-0.1415 1,0.441 0,0.5824 -0.45,1.059 -1,1.059 -0.55,0 -1,-0.1985 -1,-0.441 z m -726.36715,-7.0488 c -19.58053,-4.0699 -34.29619,-12.1379 -47.69416,-26.1487 -11.09054,-11.5979 -17.5288,-22.9335 -22.13184,-38.9665 -1.90388,-6.6315 -2.26663,-10.2956 -2.26663,-22.895 0,-16.8435 1.57153,-24.3798 7.97319,-38.2353 10.32224,-22.3412 31.81858,-40.7819 55.59758,-47.6946 3.06717,-0.8917 6.28789,-2.1722 7.15714,-2.8457 2.11504,-1.6386 23.84097,-27.8451 24.49296,-29.5441 0.31087,-0.8102 -17.61105,-19.542 -45.45465,-47.5089 -30.96889,-31.106 -46.56752,-47.4766 -47.80559,-50.1714 -2.45747,-5.3491 -3.03663,-12.4706 -1.48476,-18.2573 1.17792,-4.3922 5.15937,-8.6429 53.87793,-57.5207 34.88678,-35.0008 53.97546,-53.4422 56.67173,-54.75 2.6597,-1.29 6.11795,-1.9686 10,-1.9622 10.9629,0.018 12.03225,0.8724 54.92947,43.8877 26.03162,26.1032 39.67753,39.1025 41.04769,39.1025 1.49256,0 52.23574,-58.585 186.00481,-214.75 101.17382,-118.1125 185.458619,-216.2236 187.299619,-218.0247 7.3851,-7.2247 0.102,-6.6933 96.15266,-7.0155 66.290801,-0.2223 87.551301,0 91.000001,0.9447 5.8503,1.6053 14.0685,9.6555 15.7839,15.4615 1.5475,5.2375 1.7552,171.9032 0.2211,177.4253 -0.5411,1.9478 -2.0678,5.0107 -3.3928,6.8066 -1.325,1.7959 -99.767201,86.7087 -218.760561,188.6952 -144.914229,124.2027 -216.463849,186.1462 -216.691529,187.5989 -0.26832,1.712 7.99084,10.5092 39.20888,41.7634 29.69022,29.7246 40.05212,40.7163 41.56795,44.0946 2.68558,5.9852 2.71024,14.645 0.0578,20.2879 -1.42614,3.034 -17.23925,19.4522 -54.75,56.8451 -48.84848,48.6951 -53.09501,52.673 -57.48741,53.8509 -5.78664,1.5519 -12.90822,0.9727 -18.25726,-1.4847 -2.69516,-1.2383 -19.09219,-16.8635 -50.2654,-47.8994 -43.65896,-43.4667 -46.38515,-45.9869 -48.39099,-44.7342 -1.16907,0.7301 -8.29251,6.4739 -15.82985,12.764 -13.55418,11.3114 -13.72269,11.5028 -15.38565,17.4842 -8.22443,29.5816 -33.09551,53.9938 -63.12811,61.9633 -10.38272,2.7551 -30.09728,3.4639 -39.86718,1.4331 z m 33.98094,-52.969 c 8.63423,-4.2673 14.31855,-10.1943 18.74092,-19.5412 2.71063,-5.7291 3.07953,-7.5675 3.11021,-15.5 0.0311,-8.0504 -0.29336,-9.6859 -3.07539,-15.5 -4.55685,-9.5233 -10.13856,-15.2725 -19.15296,-19.7277 -7.13826,-3.5279 -8.22267,-3.7723 -16.73654,-3.7723 -8.49766,0 -9.60679,0.2486 -16.66041,3.7347 -9.10424,4.4996 -14.77433,10.2926 -19.17008,19.5857 -2.81723,5.9559 -3.15955,7.6547 -3.15955,15.6796 0,8.0249 0.34232,9.7237 3.15955,15.6796 4.01056,8.4787 9.73165,14.6895 17.19614,18.6681 7.85197,4.185 12.21723,5.1547 21.06343,4.679 6.01058,-0.3233 8.81444,-1.0843 14.68468,-3.9855 z m 240.12999,-36.7849 c 16.09094,-16.084 29.25625,-29.9208 29.25625,-30.7485 0,-1.9613 -252.03111,-254.0078 -253.99227,-254.0078 -1.63962,0 -60.00773,57.8666 -60.00773,59.4922 0,1.3076 253.18472,254.5078 254.49227,254.5078 0.54738,0 14.16054,-13.1597 30.25148,-29.2437 z m 184.065359,-345.0009 c 115.97906,-99.4095 211.621461,-181.5737 212.538661,-182.5872 1.525,-1.6851 1.6455,-7.1372 1.4099,-63.7555 l -0.2577,-61.9127 c 0,0 -41.275893,-0.4473 -61.912801,-0.2577 -21.26657,0.1954 -62.0607004,-0.1238 -63.7862,1.4378 -4.1985,3.7996 -363.327789,423.5114 -363.651859,424.9973 -0.48602,2.2285 60.73217,63.4749 63.06991,63.099 0.94546,-0.152 96.611,-81.6115 212.590089,-181.021 z"
       id="path3009-1"
       inkscape:connector-curvature="0"
       inkscape:export-xdpi="13.485341"
       inkscape:export-ydpi="13.485341"
       inkscape:export-filename="D:\COURS\Unity\StratBrawl_2\RessourceStratBrawl\sword_black&amp;white.png"
       sodipodi:nodetypes="ssssscsssscccsssscsssscsccssssssssccsssssccssssssssssccsssssssssscasscs" />
    <path
       style="fill:#ffffff;fill-opacity:1;fill-rule:nonzero;stroke:#000000;stroke-width:31.35539246000000100;stroke-linecap:round;stroke-linejoin:round;stroke-miterlimit:4;stroke-opacity:1;stroke-dasharray:none;stroke-dashoffset:0"
       d="m -249.22637,-1249.884 c -16.16004,-16.1989 -29.3819,-30.2641 -29.3819,-31.2558 0,-0.9918 80.98614,-96.4895 179.969193,-212.2171 l 179.969191,-210.4138 11.178101,-1.5977 c 6.147948,-0.8787 34.242405,-1.6927 62.432105,-1.8089 l 51.25401,-0.2113 -0.09,62.1077 -0.09,62.1078 -87.29771,74.7706 c -127.7055647,109.38 -334.01359,285.1606 -336.45383,286.6687 -1.15903,0.7163 -15.32918,-11.9513 -31.48923,-28.1502 z"
       id="path3041"
       inkscape:connector-curvature="0"
       transform="translate(-92.097457,-139.85169)"
       inkscape:export-filename="D:\COURS\Unity\StratBrawl_2\RessourceStratBrawl\sword_black&amp;white.png"
       inkscape:export-xdpi="13.485341"
       inkscape:export-ydpi="13.485341" />
    <path
       style="fill:#ffffff;fill-opacity:1;fill-rule:nonzero;stroke:#000000;stroke-width:0;stroke-linecap:round;stroke-linejoin:round;stroke-miterlimit:4;stroke-opacity:1;stroke-dasharray:none;stroke-dashoffset:0"
       d="m -238.0249,-1263.2493 -17.62862,-18.5074 94.60887,-111.4443 c 52.03489,-61.2944 130.132822,-152.9601 173.550963,-203.7016 l 78.942095,-92.2572 33.137782,-0.017 c 18.2258,-0.01 40.4641,-0.7091 49.41848,-1.5548 l 16.28068,-1.5376 -0.13796,50.3968 -0.13794,50.3968 -11.58917,9.6478 c -6.37402,5.3063 -97.512155,82.9109 -202.529189,172.4547 -105.017021,89.5438 -192.143191,163.2174 -193.613701,163.7191 -1.47051,0.5017 -10.60654,-7.4161 -20.30229,-17.5952 l 0,0 z"
       id="path3819"
       inkscape:connector-curvature="0"
       transform="translate(-92.097457,-139.85169)"
       inkscape:export-filename="D:\COURS\Unity\StratBrawl_2\RessourceStratBrawl\sword_black&amp;white.png"
       inkscape:export-xdpi="13.485341"
       inkscape:export-ydpi="13.485341" />
    <path
       style="fill:#ffffff;fill-opacity:1;fill-rule:nonzero;stroke:#000000;stroke-width:0;stroke-linecap:round;stroke-linejoin:round;stroke-miterlimit:4;stroke-opacity:1;stroke-dasharray:none;stroke-dashoffset:0"
       d="m -347.69188,-1154.0718 -125.76005,-125.7871 29.17032,-29.1704 29.17032,-29.1703 125.41976,125.4024 c 68.98088,68.9713 125.41976,126.387 125.41976,127.5904 0,2.6466 -53.23516,56.9222 -55.83107,56.9222 -1.00593,0 -58.42101,-56.6042 -127.58904,-125.7872 z"
       id="path3821"
       inkscape:connector-curvature="0"
       transform="translate(-92.097457,-139.85169)"
       inkscape:export-filename="D:\COURS\Unity\StratBrawl_2\RessourceStratBrawl\sword_black&amp;white.png"
       inkscape:export-xdpi="13.485341"
       inkscape:export-ydpi="13.485341" />
    <path
       style="fill:#ffffff;fill-opacity:1;fill-rule:nonzero;stroke:#000000;stroke-width:0;stroke-linecap:round;stroke-linejoin:round;stroke-miterlimit:4;stroke-opacity:1;stroke-dasharray:none;stroke-dashoffset:0"
       d="m -454.96259,-1016.1139 c -11.12215,-2.576 -18.97553,-8.7137 -25.10586,-19.6212 -10.2412,-18.2217 -2.83059,-40.4652 16.82152,-50.491 5.14173,-2.6231 12.2126,-4.7693 15.71304,-4.7693 18.53554,0 37.24289,19.2852 37.24289,38.3933 0,23.3567 -22.3935,41.6479 -44.67159,36.4882 z"
       id="path3823"
       inkscape:connector-curvature="0"
       transform="translate(-92.097457,-139.85169)"
       inkscape:export-filename="D:\COURS\Unity\StratBrawl_2\RessourceStratBrawl\sword_black&amp;white.png"
       inkscape:export-xdpi="13.485341"
       inkscape:export-ydpi="13.485341" />
    <path
       style="fill:#ffffff;fill-opacity:1;fill-rule:nonzero;stroke:#000000;stroke-width:0;stroke-linecap:round;stroke-linejoin:round;stroke-miterlimit:4;stroke-opacity:1;stroke-dasharray:none;stroke-dashoffset:0"
       d="m -454.96259,-1016.1139 c -11.12215,-2.576 -18.97553,-8.7137 -25.10586,-19.6212 -10.2412,-18.2217 -2.83059,-40.4652 16.82152,-50.491 5.14173,-2.6231 12.2126,-4.7693 15.71304,-4.7693 18.53554,0 37.24289,19.2852 37.24289,38.3933 0,23.3567 -22.3935,41.6479 -44.67159,36.4882 z"
       id="path3829"
       inkscape:connector-curvature="0"
       transform="translate(-92.097457,-139.85169)"
       inkscape:export-filename="D:\COURS\Unity\StratBrawl_2\RessourceStratBrawl\sword_black&amp;white.png"
       inkscape:export-xdpi="13.485341"
       inkscape:export-ydpi="13.485341" />
    <path
       style="fill:#ffffff;fill-opacity:1;fill-rule:nonzero;stroke:#000000;stroke-width:0;stroke-linecap:round;stroke-linejoin:round;stroke-miterlimit:4;stroke-opacity:1;stroke-dasharray:none;stroke-dashoffset:0"
       d="m -347.69188,-1154.0718 -125.76005,-125.7871 29.17032,-29.1704 29.17032,-29.1703 125.41976,125.4024 c 68.98088,68.9713 125.41976,126.387 125.41976,127.5904 0,2.6466 -53.23516,56.9222 -55.83107,56.9222 -1.00593,0 -58.42101,-56.6042 -127.58904,-125.7872 z"
       id="path3831"
       inkscape:connector-curvature="0"
       transform="translate(-92.097457,-139.85169)"
       inkscape:export-filename="D:\COURS\Unity\StratBrawl_2\RessourceStratBrawl\sword_black&amp;white.png"
       inkscape:export-xdpi="13.485341"
       inkscape:export-ydpi="13.485341" />
    <path
       style="fill:#ffffff;fill-opacity:1;fill-rule:nonzero;stroke:#000000;stroke-width:0;stroke-linecap:round;stroke-linejoin:round;stroke-miterlimit:4;stroke-opacity:1;stroke-dasharray:none;stroke-dashoffset:0"
       d="m -238.1784,-1263.25 -17.84074,-18.4886 20.08225,-23.4171 c 11.04523,-12.8794 50.9138,-59.7773 88.59682,-104.2175 37.68302,-44.4402 106.809259,-125.5723 153.6138719,-180.2935 l 85.0992811,-99.4931 29.557517,-0.014 c 16.25664,-0.01 38.5119,-0.7115 49.45614,-1.5635 l 19.89861,-1.549 -0.0599,50.4055 -0.0599,50.4055 -20.13597,16.8837 c -11.07477,9.286 -102.247978,86.8906 -202.607123,172.4547 -100.359147,85.564 -183.661187,155.9771 -185.115627,156.4734 -1.45444,0.4964 -10.67278,-7.4174 -20.48518,-17.5861 l 0,0 z"
       id="path3833"
       inkscape:connector-curvature="0"
       transform="translate(-92.097457,-139.85169)"
       inkscape:export-filename="D:\COURS\Unity\StratBrawl_2\RessourceStratBrawl\sword_black&amp;white.png"
       inkscape:export-xdpi="13.485341"
       inkscape:export-ydpi="13.485341" />
  </g>
</svg>
